G04 ================== begin FILE IDENTIFICATION RECORD ==================*
G04 Layout Name:  C:/CharmedLabs/cmucam/svn/trunk/pcb2.1/allegro/PIXY18.brd*
G04 Film Name:    PWR*
G04 File Format:  Gerber RS274X*
G04 File Origin:  Cadence Allegro 16.6-P004*
G04 Origin Date:  Tue Jan 09 21:01:18 2018*
G04 *
G04 Layer:  PIN/L3PWR*
G04 Layer:  VIA CLASS/L3PWR*
G04 Layer:  ETCH/L3PWR*
G04 Layer:  BOARD GEOMETRY/OUTLINE*
G04 *
G04 Offset:    (0.00 0.00)*
G04 Mirror:    No*
G04 Mode:      Positive*
G04 Rotation:  0*
G04 FullContactRelief:  No*
G04 UndefLineWidth:     0.00*
G04 ================== end FILE IDENTIFICATION RECORD ====================*
%FSLAX25Y25*MOIN*%
%IR0*IPPOS*OFA0.00000B0.00000*MIA0B0*SFA1.00000B1.00000*%
%ADD10C,.024*%
%ADD12C,.016*%
%ADD16C,.062*%
%ADD14C,.058*%
%ADD15C,.0815*%
%ADD13R,.058X.058*%
%ADD18R,.06496X.06496*%
%ADD11C,.001*%
%ADD17O,.03937X.05118*%
%ADD19C,.01*%
%ADD20C,.025*%
%ADD21C,.008*%
%ADD25C,.08004*%
%ADD23C,.03604*%
%ADD24C,.02804*%
%ADD26C,.09954*%
%ADD22C,.14404*%
G75*
%LPD*%
G75*
G36*
G01X-41994Y26000D02*
X-41998Y26004D01*
X-73996D01*
Y107100D01*
X-67000D01*
Y53993D01*
X-66607Y53600D01*
X-32444D01*
X-32400Y53493D01*
X-20884Y41977D01*
X-20925Y41859D01*
G03X-19141Y40075I1325J-459D01*
G01X-19023Y40116D01*
X-12988Y34081D01*
G02X-13040Y33472I-283J-283D01*
G03X-13798Y31878I1040J-1472D01*
G02X-14375Y31493I-399J-27D01*
G03X-13600Y30172I-625J-1255D01*
G02X-12982Y30489I400J-18D01*
G03X-10207Y31820I982J1511D01*
G01X-10189Y32000D01*
X10998D01*
G02X11398Y31600I0J-400D01*
G03X15002I1802J0D01*
G02X15402Y32000I400J0D01*
G01X16807D01*
X16959Y31848D01*
X44891D01*
X50652Y37609D01*
Y71109D01*
X51902Y72359D01*
Y77814D01*
X50652Y79064D01*
Y81534D01*
X50816Y81698D01*
Y85775D01*
X52202Y87160D01*
Y90651D01*
G03X52151Y91113I-2152J-4D01*
G01X52142Y91156D01*
G02X52337Y91398I195J42D01*
G01X56245D01*
G03X56653Y91438I-5J2152D01*
G01X57057Y91516D01*
G03X57303Y91578I-402J2114D01*
G03X57673Y91486I702J2034D01*
G01X58056Y91426D01*
G03X58274Y91404I325J2127D01*
G01X58278Y91403D01*
X58327Y91398D01*
X59058D01*
X59109Y91348D01*
X71390D01*
X73268Y93225D01*
X73996Y92497D01*
Y26004D01*
X41998D01*
X41994Y26000D01*
X-41994D01*
G37*
G36*
G01X-3793Y45500D02*
X-25293Y67000D01*
X-39793D01*
X-42000Y69207D01*
Y82293D01*
X-34793Y89500D01*
X-33455D01*
X-33434Y89496D01*
G03X-32852I291J1371D01*
G01X-32831Y89500D01*
X-22726D01*
G02X-22409Y88856I0J-400D01*
G03X-20189I1110J-856D01*
G02X-19872Y89500I317J244D01*
G01X-19415D01*
G02X-19056Y88922I1J-400D01*
G03X-16544I1256J-622D01*
G02X-16185Y89500I358J178D01*
G01X-11293D01*
X-9500Y91293D01*
Y98000D01*
X-4825D01*
G03X-3375I725J1200D01*
G01X7252D01*
G02X7529Y97311I0J-400D01*
G03X7543Y95275I971J-1011D01*
G02X7521Y94671I-273J-292D01*
G03X9356Y94603I878J-1093D01*
G02X9378Y95207I273J292D01*
G03X9865Y96620I-878J1093D01*
G02X10002Y96857I195J46D01*
G03X10958Y97850I-402J1343D01*
G01X10996Y98000D01*
X12630D01*
G03X12770I70J1400D01*
G01X18647D01*
G02X19045Y97565I0J-400D01*
G03X21839I1397J-123D01*
G02X22237Y98000I398J35D01*
G01X22500D01*
Y99074D01*
X22513Y99108D01*
G03Y100092I-1313J492D01*
G01X22500Y100126D01*
Y104578D01*
X22668Y104605D01*
G03Y108163I-284J1779D01*
G01X22500Y108190D01*
Y115293D01*
X32000Y124793D01*
Y140479D01*
G02X32531Y140857I400J0D01*
G03X29427Y147100I1629J4703D01*
G01X23908D01*
X23877Y147263D01*
G03X21123I-1377J-263D01*
G01X21092Y147100D01*
X16893D01*
X15989Y146196D01*
G02X15328Y146351I-282J283D01*
G03X13549Y144572I-1328J-451D01*
G02X13704Y143911I-128J-379D01*
G01X-707Y129500D01*
X-13707D01*
X-17033Y126174D01*
G02X-17716Y126457I-283J283D01*
G01Y140056D01*
X-27560D01*
Y120448D01*
X-23725D01*
G02X-23442Y119765I0J-400D01*
G01X-25000Y118207D01*
Y105000D01*
X-21201D01*
G02X-20801Y104588I0J-400D01*
G03X-17999I1401J-42D01*
G02X-17599Y105000I400J12D01*
G01X-15000D01*
Y101846D01*
X-15150Y101808D01*
G03X-15939Y99633I350J-1358D01*
G02X-16264Y99000I-325J-233D01*
G01X-27552D01*
G02X-27829Y99689I0J400D01*
G03X-29771I-971J1011D01*
G02X-30048Y99000I-277J-289D01*
G01X-30174D01*
X-30208Y99013D01*
G03X-31192I-492J-1313D01*
G01X-31226Y99000D01*
X-33693D01*
X-41500Y106807D01*
Y107949D01*
G03Y110251I-800J1151D01*
G01Y118292D01*
X-41337Y118323D01*
G03Y121077I-263J1377D01*
G01X-41500Y121108D01*
Y148375D01*
G03Y149825I-1200J725D01*
G01Y150500D01*
X-42630D01*
G03X-42770I-70J-1400D01*
G01X-66707D01*
X-67000Y150207D01*
Y108100D01*
X-73996D01*
Y163496D01*
X-69512D01*
G02X-69229Y162813I0J-400D01*
G01X-71652Y160391D01*
Y155500D01*
G03X-67348I2152J0D01*
G01Y158609D01*
X-66109Y159848D01*
X69109D01*
X70348Y158609D01*
Y137752D01*
X62382D01*
Y129454D01*
X70348D01*
Y113146D01*
X62382D01*
Y104848D01*
X70348D01*
Y96391D01*
X69608Y95650D01*
X60891D01*
X60840Y95702D01*
X58567D01*
X58280Y95812D01*
X58371Y96050D01*
X58414Y96084D01*
G03X56184Y96085I-1114J1416D01*
G02X56135Y95743I-124J-157D01*
G03X56120Y95737I791J-2000D01*
G01X56034Y95702D01*
X50238D01*
X49836Y95300D01*
X46400D01*
Y113463D01*
X46530Y113512D01*
G03X47693Y115022I-630J1688D01*
G01X47700Y115093D01*
X50265Y117658D01*
G02X50819Y117669I283J-283D01*
G03X52800Y119650I950J1031D01*
G02X52811Y120204I294J271D01*
G01X54307Y121700D01*
X54900D01*
Y127358D01*
G02X55386Y127749I400J0D01*
G03X58870Y130552I614J2804D01*
G01Y131734D01*
G03X55386Y134537I-2870J-1D01*
G02X54900Y134928I-86J391D01*
G01Y144607D01*
X54507Y145000D01*
X44000D01*
Y132600D01*
G02X43346Y132291I-400J0D01*
G03X40430Y130564I-1146J-1391D01*
G02X39994Y130092I-393J-74D01*
G03X41570Y128636I-195J-1791D01*
G02X42006Y129108I393J74D01*
G03X43346Y129509I194J1792D01*
G02X44000Y129200I254J-309D01*
G01Y125207D01*
X32893Y114100D01*
X32793D01*
X32400Y113707D01*
Y108700D01*
G02X32018Y108300I-400J0D01*
G03X30495Y105682I82J-1800D01*
G02X30138Y105100I-356J-182D01*
G01X29100D01*
Y100200D01*
X31392D01*
X31423Y100037D01*
G03X31880Y99242I1377J263D01*
G02X31858Y98621I-263J-302D01*
G03X31323Y97238I842J-1121D01*
G02X30803Y96784I-393J-75D01*
G03X29528Y94325I-444J-1330D01*
G02X29583Y93730I-237J-322D01*
G03X31882Y90989I1317J-1230D01*
G02X32500Y90654I218J-335D01*
G01Y56202D01*
G02X32100Y55802I-400J0D01*
G03Y52998I0J-1402D01*
G02X32500Y52598I0J-400D01*
G01Y50602D01*
X28498D01*
Y45500D01*
X26404D01*
G02X26014Y45986I1J400D01*
G03X21291Y50466I-3714J814D01*
G02X20789Y50906I-106J385D01*
G03X20408Y52074I-1389J193D01*
G02X20430Y52651I288J278D01*
G03X18674Y54833I-930J1049D01*
G02X18399Y54870I-118J161D01*
G03X18126Y52867I-1099J-870D01*
G02X18401Y52830I118J-161D01*
G03X18492Y52726I1099J870D01*
G02X18470Y52149I-288J-278D01*
G03X19059Y49740I930J-1049D01*
G02X19280Y49109I-97J-388D01*
G03X18586Y45986I3020J-2310D01*
G02X18196Y45500I-391J-86D01*
G01X-3793D01*
G37*
G36*
G01X-42500Y120775D02*
G03Y118625I900J-1075D01*
G01Y110497D01*
X-42650Y110458D01*
G03Y107742I350J-1358D01*
G01X-42500Y107703D01*
Y106393D01*
X-34107Y98000D01*
X-32499D01*
G02X-32100Y97622I0J-400D01*
G03X-31340Y96453I1400J78D01*
G02X-31279Y95779I-182J-356D01*
G03X-29788Y95912I851J-1114D01*
G02X-29849Y96586I182J356D01*
G03X-29300Y97622I-851J1114D01*
G02X-28901Y98000I399J-22D01*
G01X-10500D01*
Y95830D01*
G02X-11124Y95499I-400J0D01*
G03Y93177I-786J-1161D01*
G02X-10500Y92846I224J-331D01*
G01Y91707D01*
X-11707Y90500D01*
X-16801D01*
G02X-17178Y91033I0J400D01*
G03X-19822I-1322J467D01*
G02X-20199Y90500I-377J-133D01*
G01X-31341D01*
G02X-31741Y90893I0J400D01*
G03X-34545I-1402J-26D01*
G02X-34945Y90500I-400J7D01*
G01X-35207D01*
X-42653Y83054D01*
G02X-43336Y83318I-283J282D01*
G03X-43715Y82127I-1800J-83D01*
G02X-43000Y81881I315J-246D01*
G01Y68793D01*
X-40207Y66000D01*
X-25707D01*
X-4207Y44500D01*
X19273D01*
G03X25327I3027J2300D01*
G01X28498D01*
Y42998D01*
X36102D01*
Y50602D01*
X33500D01*
Y54347D01*
G03Y54453I-1400J53D01*
G01Y96349D01*
G03Y98651I-800J1151D01*
G01Y99085D01*
G03X31725Y101200I-700J1215D01*
G01X30100D01*
Y104100D01*
X32607D01*
X33400Y104893D01*
Y105250D01*
X33450Y105307D01*
G03X33400Y107748I-1350J1193D01*
G01Y113193D01*
X45000Y124793D01*
Y144000D01*
X53900D01*
Y133690D01*
G03X53130Y131734I2100J-1956D01*
G01Y130552D01*
G03X53900Y128596I2870J0D01*
G01Y122707D01*
X51153Y119960D01*
X51125Y119945D01*
X51099Y119931D01*
G03X50538Y119370I670J-1231D01*
G01X50524Y119344D01*
X50509Y119316D01*
X47703Y116510D01*
G02X47144Y116504I-283J283D01*
G03X45270Y113512I-1244J-1304D01*
G01X45400Y113463D01*
Y90130D01*
X45389Y90062D01*
X45384Y90049D01*
G03X45381Y88961I1716J-549D01*
G01X45390Y88932D01*
X45400Y88901D01*
Y88100D01*
X45793D01*
X46514Y87380D01*
Y83483D01*
X46512Y83482D01*
Y83480D01*
X46348Y83316D01*
Y77451D01*
X46213Y77404D01*
G03X46491Y73925I587J-1704D01*
G02X46705Y73248I-69J-394D01*
G01X46348Y72891D01*
Y39391D01*
X43109Y36152D01*
X18741D01*
X17241Y37652D01*
X13400D01*
G03X12170Y33735I0J-2152D01*
G02Y33079I-229J-328D01*
G03X12065Y33000I1030J-1479D01*
G01X-10493D01*
X-10518Y33025D01*
G03X-10962Y33473I-1482J-1025D01*
G01X-10976Y33483D01*
X-18316Y40823D01*
X-18275Y40941D01*
G03X-20059Y42725I-1325J459D01*
G01X-20177Y42684D01*
X-32400Y54907D01*
X-32707Y54600D01*
X-66000D01*
Y149500D01*
X-44502D01*
G02X-44102Y149100I0J-400D01*
G03X-42700Y147698I1402J0D01*
G02X-42500Y147498I0J-200D01*
G01Y120775D01*
G37*
G36*
G01X-24000Y106000D02*
Y117793D01*
X-21346Y120448D01*
X-17716D01*
Y124078D01*
X-13293Y128500D01*
X-5277D01*
G02X-4954Y127864I0J-400D01*
G03X-2046I1454J-1064D01*
G02X-1723Y128500I323J236D01*
G01X-1000D01*
Y113500D01*
X-14131D01*
G03X-15175Y111009I-869J-1100D01*
G01X-15000Y110987D01*
Y106000D01*
X-24000D01*
G37*
G36*
G01X-13336Y99000D02*
G02X-13661Y99633I0J400D01*
G03X-14000Y101601I-1139J817D01*
G01Y109569D01*
G02X-13489Y109953I400J0D01*
G03X-12744Y109944I389J1347D01*
G02X-12256Y109456I101J-387D01*
G03X-9716Y108348I1356J-357D01*
G02X-9019Y108310I338J-214D01*
G03X-5802Y108268I1619J790D01*
G02X-5326Y108464I355J-185D01*
G03X-5957Y110721I426J1336D01*
G02X-6466Y110641I-302J262D01*
G03X-9019Y109890I-934J-1541D01*
G02X-9716Y109852I-359J176D01*
G03X-11256Y110456I-1183J-752D01*
G02X-11744Y110944I-101J387D01*
G03X-11844Y111922I-1356J355D01*
G02X-11485Y112500I358J178D01*
G01X2806D01*
Y112297D01*
G03X5510Y111756I1402J-22D01*
G02X6019Y111983I371J-149D01*
G03X7651Y112500I481J1317D01*
G01X12207D01*
X14707Y115000D01*
X21500D01*
Y107954D01*
G03Y104814I884J-1570D01*
G01Y101399D01*
G02X21122Y101000I-400J0D01*
G03X19807Y99444I78J-1400D01*
G02X19409Y99000I-398J-44D01*
G01X14502D01*
G02X14102Y99400I0J400D01*
G03X11298I-1402J0D01*
G02X10898Y99000I-400J0D01*
G01X10755D01*
X10695Y99075D01*
G03X8449Y99000I-1095J-875D01*
G01X-2498D01*
G02X-2698Y99200I0J200D01*
G03X-5502I-1402J0D01*
G02X-5702Y99000I-200J0D01*
G01X-13336D01*
G37*
G36*
G01X29185Y145690D02*
G03X31000Y141715I4975J-130D01*
G01Y125207D01*
X28243Y122450D01*
G02X27560Y122733I-283J283D01*
G01Y140056D01*
X17716D01*
Y120448D01*
X25275D01*
G02X25558Y119765I0J-400D01*
G01X21793Y116000D01*
X14293D01*
X11793Y113500D01*
X7896D01*
X7858Y113650D01*
G03X5142I-1358J-350D01*
G01X5104Y113500D01*
X4892D01*
X4849Y113522D01*
G03X3567I-641J-1247D01*
G01X3524Y113500D01*
X0D01*
Y128793D01*
X17307Y146100D01*
X21425D01*
G03X23575I1075J900D01*
G01X28785D01*
G02X29185Y145690I0J-400D01*
G37*
%LPC*%
G75*
G36*
G01X58870Y110866D02*
G02X53130I-2870J0D01*
G01Y112048D01*
G02X58870I2870J0D01*
G01Y110866D01*
G37*
G36*
G01X60107Y119456D02*
G03X59729Y119900I-398J44D01*
G02X61193Y121144I71J1400D01*
G03X61571Y120700I398J-44D01*
G02X62170Y118068I-71J-1400D01*
G03X62074Y117438I191J-351D01*
G02X60169Y117877I-1292J-1256D01*
G03X60359Y118485I-136J376D01*
G02X60107Y119456I1141J814D01*
G37*
G36*
G01X22786Y87737D02*
G03X22264I-261J-303D01*
G02Y89863I-914J1063D01*
G03X22786I261J303D01*
G02Y87737I914J-1063D01*
G37*
G36*
G01X-23570Y83965D02*
G03X-23457Y84205I-79J184D01*
G02X-21561Y83311I1345J395D01*
G03X-21674Y83071I79J-184D01*
G02X-23570Y83965I-1345J-395D01*
G37*
G36*
G01X-14832Y82814D02*
G03X-14828Y82303I310J-253D01*
G02X-16987Y82285I-1072J-903D01*
G03X-16991Y82796I-310J253D01*
G02X-14832Y82814I1072J903D01*
G37*
G36*
G01X-19245Y64317D02*
G03X-19397Y64535I-198J24D01*
G02X-17679Y65729I326J1364D01*
G03X-17527Y65511I198J-24D01*
G02X-19245Y64317I-326J-1364D01*
G37*
G36*
G01X-7893Y54626D02*
G03X-8018Y54876I-190J61D01*
G02X-6221Y55774I461J1324D01*
G03X-6096Y55524I190J-61D01*
G02X-7893Y54626I-461J-1324D01*
G37*
G36*
G01X-2455Y84545D02*
G02X-3745I-645J-1245D01*
G03Y85255I-184J355D01*
G02X-2455I645J1245D01*
G03Y84545I184J-355D01*
G37*
G36*
G01X7115Y81368D02*
G02X5685I-715J-1206D01*
G03Y82056I-204J344D01*
G02X5673Y84461I715J1206D01*
G03X5651Y85157I-207J342D01*
G02X7525Y87082I649J1243D01*
G03X8235Y87105I349J195D01*
G02X8275Y85818I1265J-605D01*
G03X7565Y85795I-349J-195D01*
G02X7027Y85201I-1265J605D01*
G03X7049Y84505I207J-342D01*
G02X7115Y82056I-649J-1243D01*
G03Y81368I204J-344D01*
G37*
G36*
G01X10153Y75083D02*
G02X8725Y75129I-753J-1183D01*
G03X8747Y75817I-192J351D01*
G02X10175Y75771I753J1183D01*
G03X10153Y75083I192J-351D01*
G37*
G36*
G01X-5055Y73255D02*
G02Y74545I-1245J645D01*
G03X-4345I355J184D01*
G02X-3853Y75083I1245J-645D01*
G03X-3875Y75771I-214J337D01*
G02X-2447Y75817I675J1229D01*
G03X-2425Y75129I214J-337D01*
G02X-4345Y73255I-675J-1229D01*
G03X-5055I-355J-184D01*
G37*
G36*
G01X682Y65525D02*
G02X-605Y65565I-682J-1225D01*
G03X-582Y66275I-172J361D01*
G02Y68725I682J1225D01*
G03X-605Y69435I-195J349D01*
G02X682Y69475I605J1265D01*
G03X705Y68765I195J-349D01*
G02X1267Y68277I-605J-1265D01*
G03X1933I333J222D01*
G02Y66723I1167J-777D01*
G03X1267I-333J-222D01*
G02X705Y66235I-1167J777D01*
G03X682Y65525I172J-361D01*
G37*
G36*
G01X8830Y38231D02*
G02X8665Y40050I-1630J769D01*
G03X9325Y40065I325J233D01*
G02X9482Y38336I1175J-765D01*
G03X8830Y38231I-290J-275D01*
G37*
G36*
G01X-53812Y123744D02*
G02X-55713Y123477I-738J-1644D01*
G03X-55756Y124119I-258J305D01*
G02X-53948Y124373I756J1181D01*
G03X-53812Y123744I300J-264D01*
G37*
G36*
G01X-3972Y120290D02*
G03X-4530Y120287I-277J-288D01*
G02X-4540Y122298I-982J1001D01*
G03X-3982Y122301I277J288D01*
G02X-3972Y120290I982J-1001D01*
G37*
G36*
G01X-11105Y123214D02*
G03X-11084Y122606I270J-295D01*
G02X-13177Y122712I-1121J-1411D01*
G03X-13095Y123315I-216J336D01*
G02X-11105Y123214I1045J935D01*
G37*
G36*
G01X9959Y109884D02*
G03X10233Y109858I151J131D01*
G02X10283Y107616I867J-1102D01*
G03X10010Y107578I-117J-162D01*
G02X9959Y109884I-1410J1122D01*
G37*
G54D25*
X39080Y155400D03*
X56800D03*
G54D23*
X-69500Y89100D03*
X-19300Y37100D03*
X64484Y78116D03*
X57100Y85700D03*
X69700Y73300D03*
X-23500Y74000D03*
X-22000Y101500D03*
X-9500Y141100D03*
X1000Y60400D03*
X30200Y83800D03*
X51479Y125122D03*
X39700Y80393D03*
X-45900Y73400D03*
X-47800Y62100D03*
X-54500Y131700D03*
X-62500Y108000D03*
Y118600D03*
X-61000Y62500D03*
X12205Y120805D03*
X6500Y126700D03*
G54D24*
X-21600Y29200D03*
X-26900Y37700D03*
X7700Y29700D03*
X-1400Y28700D03*
X-71200Y110000D03*
X-69500Y130100D03*
X-36900Y118200D03*
X-39500Y138600D03*
X-30471Y72558D03*
X-35500Y72200D03*
X-27000Y105200D03*
X-27084Y117484D03*
X-28105Y111000D03*
X-6300Y67600D03*
X-12700Y83300D03*
X-9338Y83385D03*
X-12600Y73900D03*
X-16800Y75301D03*
X-9400Y80100D03*
X-16600Y72000D03*
X-7400Y145200D03*
X7100Y47716D03*
X5500Y60800D03*
X9519Y67619D03*
X12415Y83300D03*
X3100D03*
X6397Y89697D03*
X4399Y95500D03*
X7200Y145100D03*
X27900Y68200D03*
X16588Y63584D03*
X19000Y73500D03*
X25300Y98300D03*
X16800Y90000D03*
X33053Y120547D03*
X48500Y101000D03*
X41700Y149900D03*
X52100Y147600D03*
X-38500Y90800D03*
X41700Y101000D03*
X37900Y90900D03*
X39600Y73400D03*
X18102Y39376D03*
X-6950Y37600D03*
X-12700Y40200D03*
X-3000Y40800D03*
X-35976Y94300D03*
X-24400Y62000D03*
X-50500Y126400D03*
X-49800Y105500D03*
X-53600Y104900D03*
X-54000Y90600D03*
X-52000Y101300D03*
X-44099Y95096D03*
X-47400Y86500D03*
X-57500Y119600D03*
X-58400Y109500D03*
X-60200Y83000D03*
X-14900Y116900D03*
X-7746Y101355D03*
X-1100Y101100D03*
X15500Y110300D03*
G54D26*
X61720Y145560D03*
G54D22*
X-55000Y41000D03*
%LPD*%
G75*
G54D10*
X-71900Y97200D03*
X-63800Y64200D03*
X-61000Y62500D03*
X-69500Y89100D03*
X-62500Y97000D03*
Y118600D03*
Y108000D03*
X-54550Y122100D03*
X-54500Y131700D03*
X-56000Y127932D03*
X-69500Y155500D03*
X-47800Y62100D03*
X-45900Y73400D03*
X-45136Y83236D03*
X-50500Y147700D03*
X-53800Y144000D03*
X-19300Y37100D03*
X-33300Y68800D03*
X-23500Y74000D03*
X-22000Y101500D03*
X-28200Y96500D03*
X-21703Y111500D03*
X-22100Y158700D03*
X-12000Y32000D03*
X-17600Y49056D03*
X-7400Y109100D03*
X-12205Y121195D03*
X-2990Y108045D03*
X-3500Y126800D03*
X-7700D03*
X-9500Y141100D03*
X13200Y31600D03*
X13400Y35500D03*
X7200Y39000D03*
X1000Y60400D03*
X8600Y108700D03*
X12205Y120805D03*
X1782Y108334D03*
X2400Y126800D03*
X6500Y126700D03*
X9400Y142400D03*
X30200Y83800D03*
X31100Y80600D03*
X30900Y92500D03*
X32140Y102760D03*
X22384Y106384D03*
X32100Y106500D03*
X19000Y113000D03*
X27600Y143300D03*
X43600Y41600D03*
X43500Y48500D03*
Y54700D03*
Y60500D03*
Y66800D03*
X45200Y81700D03*
X39700Y80393D03*
X46800Y75700D03*
X36300Y87500D03*
X47100Y89500D03*
X45900Y115200D03*
X38760Y110240D03*
X51499Y140500D03*
X51479Y125122D03*
X42200Y130900D03*
X39800Y128300D03*
X50800Y128700D03*
X64484Y78116D03*
X57100Y85700D03*
X57300Y97500D03*
X60782Y116182D03*
X69700Y73300D03*
X71400Y89900D03*
X72500Y156500D03*
G54D20*
G01D02*
Y159500D01*
X70000Y162000D01*
X-67000D01*
X-69500Y159500D01*
Y155500D01*
G01X13400Y35500D02*
X16350D01*
X17850Y34000D01*
X44000D01*
X48500Y38500D01*
Y72000D01*
X49750Y73250D01*
Y76923D01*
X48500Y78173D01*
Y82425D01*
X48664Y82589D01*
Y82591D01*
X48665Y82592D01*
Y86666D01*
X50050Y88051D01*
Y90651D01*
X50030Y90742D01*
X49341Y91432D01*
Y91762D01*
X51129Y93550D01*
X56245D01*
X56649Y93628D01*
X56940Y93748D01*
X56944Y93749D01*
X56962Y93754D01*
X57626D01*
X57673Y93740D01*
X58006Y93612D01*
X58389Y93552D01*
X58414D01*
X58434Y93550D01*
X59949D01*
X60000Y93499D01*
X70499D01*
X72500Y95500D01*
Y156500D01*
G54D11*
X-55000Y41000D03*
X-12500Y12500D03*
X12500D03*
G54D21*
G01X39080Y155400D02*
X42251Y152229D01*
G01X35909Y158571D02*
X39080Y155400D01*
G01D02*
X42251Y158571D01*
G01X35909Y152229D02*
X39080Y155400D01*
G54D12*
X-60200Y83000D03*
X-58400Y109500D03*
X-71200Y110000D03*
X-57500Y119600D03*
X-69500Y130100D03*
X-54500Y131650D03*
X-55000Y125300D03*
X-47400Y86500D03*
X-44099Y95096D03*
X-38500Y90800D03*
X-52000Y101300D03*
X-54000Y90600D03*
X-53600Y104900D03*
X-49800Y105500D03*
X-36900Y118200D03*
X-41600Y119700D03*
X-49550Y111000D03*
X-42300Y109100D03*
X-39500Y138600D03*
X-49800Y129400D03*
X-50500Y126400D03*
X-42700Y149100D03*
X-21600Y29200D03*
X-26900Y37700D03*
X-19600Y41400D03*
X-24400Y62000D03*
X-30471Y72558D03*
X-35500Y72200D03*
X-35200Y87100D03*
X-23019Y82676D03*
X-23306Y78394D03*
X-22112Y84600D03*
X-21299Y88000D03*
X-30428Y94665D03*
X-35976Y94300D03*
X-33143Y90867D03*
X-28800Y100700D03*
X-19832Y95500D03*
X-30700Y97700D03*
X-19400Y104546D03*
X-27000Y105200D03*
X-27084Y117484D03*
X-28105Y111000D03*
X-15000Y30238D03*
X-3000Y40800D03*
X-12700Y40200D03*
X-1914Y37065D03*
X-6950Y37600D03*
X-19071Y65899D03*
X-1600Y60700D03*
X-6557Y54200D03*
X-7557Y56200D03*
X-17853Y64147D03*
X-6300Y67600D03*
X-16600Y72000D03*
X-15900Y81400D03*
X-15919Y83699D03*
X-12700Y83300D03*
X-9338Y83385D03*
X-12600Y73900D03*
X-16800Y75301D03*
X-9400Y80100D03*
X-3200Y77000D03*
X-6300Y73900D03*
X-3100D03*
Y86500D03*
Y83300D03*
X-17800Y88300D03*
X-18500Y91500D03*
X-7746Y101355D03*
X-11910Y94338D03*
X-4100Y99200D03*
X-14800Y100450D03*
X-5512Y121288D03*
X-3000Y121300D03*
X-10900Y109100D03*
X-13100Y111300D03*
X-14900Y116900D03*
X-15000Y112400D03*
X-4900Y109800D03*
X-12050Y124250D03*
X-7400Y145200D03*
X7700Y29700D03*
X-1400Y28700D03*
X7100Y47716D03*
X10500Y39300D03*
X5500Y60800D03*
X100Y67500D03*
X0Y64300D03*
X3100Y67500D03*
X9500Y64400D03*
X9519Y67619D03*
X12415Y83300D03*
X9400Y73900D03*
X6300Y86400D03*
X9500Y77000D03*
X0Y70700D03*
X6400Y80162D03*
Y83262D03*
X9500Y86500D03*
X12600Y77100D03*
X3200Y80100D03*
X9500Y70800D03*
X3100Y83300D03*
X12700Y99400D03*
X-1100Y101100D03*
X6397Y89697D03*
X9600Y98200D03*
X8500Y96300D03*
X1575Y93875D03*
X4399Y95500D03*
X8399Y93578D03*
X11100Y108756D03*
X6500Y113300D03*
X4208Y112275D03*
X15500Y110300D03*
X14000Y145900D03*
X7200Y145100D03*
X15016Y148116D03*
X18102Y39376D03*
X19400Y51100D03*
X18100Y49400D03*
X21200Y65500D03*
X27900Y68200D03*
X17300Y54000D03*
X19500Y53700D03*
X18700Y63200D03*
X32100Y54400D03*
X16588Y63584D03*
X19000Y73500D03*
X16600Y84196D03*
X16603Y86306D03*
X23700Y88800D03*
X30359Y95454D03*
X25300Y98300D03*
X21350Y88800D03*
X32800Y100300D03*
X32700Y97500D03*
X16800Y90000D03*
X20442Y97442D03*
X21200Y99600D03*
X33053Y120547D03*
X22500Y147000D03*
X26800Y157700D03*
X39600Y73400D03*
X37900Y90900D03*
X41700Y101000D03*
X48500D03*
X42723Y117709D03*
X41700Y149900D03*
X59800Y121300D03*
X61500Y119300D03*
X51769Y118700D03*
X52100Y147600D03*
G54D13*
X32300Y46800D03*
G54D14*
X22300D03*
G54D15*
X34160Y145560D03*
X61720D03*
G54D16*
X39080Y155400D03*
X56800D03*
G54D17*
X56000Y111457D03*
Y131143D03*
G54D18*
X66531Y108997D03*
Y133603D03*
G54D19*
G01X-35000Y0D02*
Y17500D01*
X-42500Y25000D01*
X-75000D01*
Y165000D01*
X75000D01*
Y25000D01*
X42500D01*
X35000Y17500D01*
Y0D01*
X-35000D01*
M02*
