G04 ================== begin FILE IDENTIFICATION RECORD ==================*
G04 Layout Name:  C:/CharmedLabs/cmucam/svn/trunk/pcb2.1/allegro/PIXY18.brd*
G04 Film Name:    SMT*
G04 File Format:  Gerber RS274X*
G04 File Origin:  Cadence Allegro 16.6-P004*
G04 Origin Date:  Tue Jan 09 21:01:18 2018*
G04 *
G04 Layer:  VIA CLASS/SOLDERMASK_TOP*
G04 Layer:  PIN/SOLDERMASK_TOP*
G04 Layer:  PACKAGE GEOMETRY/SOLDERMASK_TOP*
G04 Layer:  BOARD GEOMETRY/OUTLINE*
G04 *
G04 Offset:    (0.00 0.00)*
G04 Mirror:    No*
G04 Mode:      Positive*
G04 Rotation:  0*
G04 FullContactRelief:  No*
G04 UndefLineWidth:     0.00*
G04 ================== end FILE IDENTIFICATION RECORD ====================*
%FSLAX25Y25*MOIN*%
%IR0*IPPOS*OFA0.00000B0.00000*MIA0B0*SFA1.00000B1.00000*%
%ADD34R,.056X.1*%
%ADD37C,.062*%
%ADD21O,.024X.1378*%
%ADD16R,.022X.022*%
%ADD18R,.05X.05*%
%ADD29C,.058*%
%ADD31C,.0815*%
%ADD36R,.0315X.0315*%
%ADD24R,.0433X.0433*%
%ADD25C,.0189*%
%ADD28R,.058X.058*%
%ADD27R,.00925X.03642*%
%ADD22O,.09449X.14173*%
%ADD40R,.06496X.06496*%
%ADD32R,.22X.23*%
%ADD11C,.12*%
%ADD23R,.025X.016*%
%ADD19R,.032X.038*%
%ADD17R,.038X.032*%
%ADD20R,.04331X.04331*%
%ADD38R,.0787X.0433*%
%ADD10R,.07283X.04331*%
%ADD35R,.0433X.0787*%
%ADD39O,.03937X.05118*%
%ADD14O,.02913X.04685*%
%ADD33R,.02165X.03937*%
%ADD12R,.072X.07874*%
%ADD15R,.02913X.04685*%
%ADD30R,.0945X.0787*%
%ADD26R,.02776X.04744*%
%ADD13R,.05906X.07874*%
%ADD41C,.01*%
G75*
%LPD*%
G75*
G54D10*
X-70051Y160000D03*
X70051D03*
G54D20*
X-62472D03*
X62472D03*
G54D11*
X-55000Y41000D03*
X-12500Y12500D03*
X12500D03*
X68500Y98600D03*
G54D30*
X26000Y59250D03*
Y75000D03*
G54D12*
X-65096Y71500D03*
X-53304D03*
G54D21*
X-37600Y55010D03*
X-42600D03*
Y80600D03*
X-37600D03*
X-27600Y55010D03*
X-32600D03*
Y80600D03*
X-27600D03*
G54D13*
X-65696Y58800D03*
X-52704D03*
Y83900D03*
X-65696D03*
G54D40*
X66531Y108997D03*
Y133603D03*
G54D22*
X-22539Y130213D03*
X22539D03*
G54D31*
X34160Y145560D03*
X61720D03*
G54D41*
G01X-35000Y0D02*
Y17500D01*
X-42500Y25000D01*
X-75000D01*
Y165000D01*
X75000D01*
Y25000D01*
X42500D01*
X35000Y17500D01*
Y0D01*
X-35000D01*
G54D14*
X-58760Y93185D03*
X-62500D03*
X-66240D03*
Y103815D03*
X-62500D03*
X-58760Y114185D03*
X-62500D03*
X-66240Y124815D03*
X-62500D03*
X-58760D03*
X42160Y121715D03*
X45900D03*
X49640D03*
Y111085D03*
X45900D03*
G54D23*
X-9500Y32100D03*
Y34600D03*
X-17000D03*
Y32100D03*
X-9500Y37100D03*
X-17000D03*
X9000Y34100D03*
Y31600D03*
Y36600D03*
X16500Y31600D03*
Y34100D03*
Y36600D03*
G54D32*
X60750Y51500D03*
G54D15*
X-58760Y103815D03*
X-66240Y114185D03*
X42160Y111085D03*
G54D33*
X43240Y73185D03*
X35760D03*
Y83815D03*
X39500D03*
X43240D03*
G54D24*
X-3000Y33600D03*
Y44430D03*
X2910Y33600D03*
Y44430D03*
G54D25*
X-14173Y69126D03*
X-11024D03*
X-7874D03*
X-4724D03*
X-1575D03*
X-14173Y65976D03*
X-11024D03*
X-7874D03*
X-4724D03*
X-1575D03*
X-14173Y62827D03*
X-11024D03*
X-7874D03*
X-4724D03*
X-1575D03*
X-14173Y84874D03*
X-11024D03*
X-7874D03*
X-4724D03*
X-1575D03*
X-14173Y81724D03*
X-11024D03*
X-7874D03*
X-4724D03*
X-1575D03*
X-14173Y78575D03*
X-11024D03*
X-7874D03*
X-4724D03*
X-1575D03*
X-14173Y75425D03*
X-11024D03*
X-7874D03*
X-4724D03*
X-1575D03*
X-14173Y72276D03*
X-11024D03*
X-7874D03*
X-4724D03*
X-1575D03*
X-14173Y91173D03*
X-11024D03*
X-7874D03*
X-4724D03*
X-1575D03*
X-14173Y88024D03*
X-11024D03*
X-7874D03*
X-4724D03*
X-1575D03*
X1575Y69126D03*
X4724D03*
X7874D03*
X11024D03*
X14173D03*
X1575Y65976D03*
X4724D03*
X7874D03*
X11024D03*
X14173D03*
X1575Y62827D03*
X4724D03*
X7874D03*
X11024D03*
X14173D03*
X1575Y84874D03*
X4724D03*
X7874D03*
X11024D03*
X14173D03*
X1575Y81724D03*
X4724D03*
X7874D03*
X11024D03*
X14173D03*
X1575Y78575D03*
X4724D03*
X7874D03*
X11024D03*
X14173D03*
X1575Y75425D03*
X4724D03*
X7874D03*
X11024D03*
X14173D03*
X1575Y72276D03*
X4724D03*
X7874D03*
X11024D03*
X14173D03*
X1575Y91173D03*
X4724D03*
X7874D03*
X11024D03*
X14173D03*
X1575Y88024D03*
X4724D03*
X7874D03*
X11024D03*
X14173D03*
G54D16*
X-54500Y134000D03*
Y138200D03*
X-21000Y74000D03*
Y78200D03*
X24000Y52500D03*
X28200D03*
X24000Y82000D03*
X28200D03*
X53800Y145400D03*
Y141200D03*
G54D34*
X52200Y80500D03*
X69700D03*
G54D26*
X-12205Y105094D03*
Y116906D03*
X12205Y105094D03*
Y116906D03*
G54D35*
X46500Y134700D03*
G54D17*
X-69500Y134000D03*
Y139600D03*
X-45900Y103800D03*
X-38500Y108500D03*
Y114100D03*
X-45900Y109400D03*
X-46000Y138500D03*
X-38500Y128500D03*
Y134100D03*
X-46000Y123800D03*
Y129400D03*
Y144100D03*
X-23100Y32100D03*
Y37700D03*
X31000Y153900D03*
Y159500D03*
X50921Y89500D03*
X41079D03*
X35800Y133900D03*
Y128300D03*
G54D27*
X-2362Y104543D03*
X-3937D03*
X-5512D03*
X-7087D03*
X-8661D03*
Y117457D03*
X-7087D03*
X-5512D03*
X-3937D03*
X-2362D03*
X8661Y104543D03*
X7087D03*
X5512D03*
X3937D03*
X2362D03*
X787D03*
X-787D03*
Y117457D03*
X787D03*
X2362D03*
X3937D03*
X5512D03*
X7087D03*
X8661D03*
G54D36*
X46500Y127220D03*
X66480Y89500D03*
G54D18*
X-61700Y132200D03*
Y140600D03*
X46700Y152400D03*
Y144000D03*
G54D19*
X-56100Y160000D03*
X-41400Y90900D03*
X-47000D03*
X-53000Y97500D03*
X-47400D03*
X-41300D03*
X-51400Y116500D03*
X-45800D03*
X-50500Y160000D03*
X-35700Y97500D03*
X-9900Y43100D03*
X-15500D03*
X10000Y49200D03*
X15600D03*
X10000Y42600D03*
X15600D03*
X22000Y92000D03*
X27600D03*
X30600Y116100D03*
X36000Y97500D03*
X41600D03*
X48500D03*
X48400Y104500D03*
X36200Y116100D03*
X45700Y160000D03*
X51300D03*
X54100Y97500D03*
X54000Y104500D03*
G54D28*
X32300Y46800D03*
G54D37*
X39080Y155400D03*
X56800D03*
G54D38*
X59000Y89500D03*
G54D29*
X22300Y46800D03*
G54D39*
X56000Y111457D03*
Y131143D03*
M02*
