G04 Output by ViewMate Deluxe V11.6.6  PentaLogix*
G04 Tue Jan 09 21:16:47 2018*
%FSLAX25Y25*%
%MOIN*%
%IPPOS*%
%ADD10C,0.01*%
%ADD11C,0.0139*%
%ADD12C,0.005*%
%ADD13C,0.006*%
%ADD14C,0.008*%
%ADD15C,0.00787*%

%LPD*%
X0Y0D2*G36*G1X35025Y43136D2*X32606D1*Y43094*X32563*X32521Y43052*X32500Y42884*X32479Y42863*X32458Y42652*X32437Y42632*X32416Y42442*X32395Y42421*X32374Y42211*X32353Y42190*X32332Y41979*X32311Y41958*X32290Y41748*X32269Y41727*X32248Y41538*X32227Y41516*X32206Y41306*X32185Y41285*X32164Y41075*X32143Y41054*X32122Y40843*X32101Y40822*X32080Y40633*X31974Y40507*X31953Y40486*X31869Y40465*X31848Y40444*X31764Y40422*X31743Y40402*X31659Y40380*X31596Y40338*X31512Y40317*X31490Y40296*X31406Y40275*X31385Y40254*X31301Y40233*X31280Y40212*X31196Y40191*X31133Y40149*X31049Y40128*X31028Y40107*X30944Y40086*X30922Y40065*X30838Y40044*X30775Y40002*X30691Y39981*X30670Y39960*X30586Y39939*X30565Y39918*X30481Y39896*X30460Y39876*X30376Y39854*X30354Y39833*X30249Y39812*X30228Y39833*X30144Y39854*X30018Y39960*X29997*X29892Y40044*X29870*X29765Y40128*X29744*X29618Y40233*X29597*X29492Y40317*X29471*X29344Y40422*X29324*X29218Y40507*X29197*X29092Y40591*X29071*X28945Y40696*X28924*X28819Y40780*X28798*X28671Y40886*X28650*X28545Y40970*X28524*X28419Y41054*X28398*X28272Y41159*X28251*X28166Y41222*X28124Y41243*X28103*X28082Y41222*X28040*X26336Y39497*X26357Y39371*X26441Y39265*Y39244*X26525Y39139*Y39118*X26631Y38992*Y38971*X26715Y38866*Y38845*X26799Y38740*Y38718*X26904Y38592*Y38571*X26988Y38466*Y38445*X27072Y38340*Y38319*X27178Y38192*Y38172*X27262Y38066*Y38045*X27346Y37940*Y37919*X27451Y37793*Y37772*X27535Y37667*Y37646*X27619Y37540*Y37519*X27704Y37414*X27725Y37288*X27682Y37225*X27662Y37141*X27619Y37077*X27598Y36993*X27556Y36930*X27535Y36846*X27493Y36783*X27472Y36699*X27430Y36636*X27409Y36552*X27367Y36488*X27346Y36404*X27304Y36341*X27283Y36257*X27241Y36194*X27220Y36110*X27178Y36046*X27157Y35962*X27114Y35899*X27093Y35815*X27051Y35752*X27030Y35668*X26967Y35542*X26883Y35478*X26631Y35436*X26610Y35415*X26399Y35394*X26378Y35373*X26189Y35352*X26168Y35331*X25957Y35310*X25936Y35289*X25726Y35268*X25705Y35247*X25495Y35226*X25474Y35205*X25284Y35184*X25263Y35163*X25053Y35142*X25032Y35121*X24821Y35100*X24800Y35079*X24590Y35058*X24569Y35037*X24485Y35016*X24464Y34890*Y32512*X24506Y32470*X24653Y32449*X24674Y32428*X24884Y32407*X24906Y32386*X25095Y32365*X25116Y32344*X25326Y32323*X25347Y32302*X25558Y32281*X25579Y32260*X25789Y32239*X25810Y32218*X25999Y32197*X26020Y32176*X26231Y32154*X26252Y32134*X26462Y32112*X26483Y32091*X26673Y32070*X26694Y32049*X26841Y32028*X26946Y31902*X26967Y31818*X26988Y31797*X27009Y31713*X27030Y31692*X27051Y31608*X27072Y31586*X27093Y31502*X27114Y31481*X27136Y31397*X27157Y31376*X27178Y31292*X27199Y31271*X27220Y31187*X27241Y31166*X27262Y31082*X27283Y31060*X27304Y30976*X27325Y30955*X27346Y30871*X27367Y30850*X27388Y30766*X27409Y30745*X27430Y30661*X27451Y30640*X27472Y30555*X27493Y30534*X27514Y30450*X27535Y30429*X27556Y30345*X27577Y30324*X27598Y30240*X27619Y30219*X27640Y30114*X27662Y30093*X27640Y29988*X27556Y29882*Y29861*X27451Y29735*Y29714*X27367Y29609*Y29588*X27283Y29483*Y29462*X27178Y29335*Y29314*X27093Y29209*Y29188*X27009Y29083*Y29062*X26904Y28936*Y28915*X26820Y28809*Y28788*X26736Y28683*Y28662*X26631Y28536*Y28515*X26546Y28410*Y28389*X26462Y28283*Y28262*X26357Y28136*X26336Y28010*Y27989*X28082Y26264*X28187Y26285*X28293Y26369*X28314*X28440Y26474*X28461*X28566Y26558*X28587*X28692Y26642*X28714*X28840Y26748*X28861*X28966Y26832*X28987*X29113Y26937*X29134*X29239Y27021*X29260*X29366Y27105*X29387*X29513Y27210*X29534*X29639Y27294*X29660*X29786Y27400*X29807*X29913Y27484*X29934*X30018Y27547*X30123Y27568*X30144Y27547*X30228Y27526*X30312Y27463*X30586Y27337*X30670Y27274*X30901Y27168*X30986Y27105*X31070*X31133Y27210*X31154Y27294*X31175Y27316*X31196Y27400*X31217Y27421*X31238Y27505*X31280Y27568*X31301Y27652*X31322Y27673*X31343Y27757*X31385Y27820*X31406Y27905*X31427Y27926*X31448Y28010*X31469Y28031*X31490Y28115*X31533Y28178*X31554Y28262*X31575Y28283*X31596Y28368*X31638Y28431*X31659Y28515*X31680Y28536*X31701Y28620*X31722Y28641*X31743Y28725*X31785Y28788*X31806Y28872*X31827Y28894*X31848Y28978*X31869Y28999*X31890Y29083*X31932Y29146*X31953Y29230*X31974Y29251*X31995Y29335*X32038Y29398*X32058Y29483*X32080Y29504*X32101Y29588*X32122Y29609*X32143Y29693*X32185Y29756*X32206Y29840*X32227Y29861*X32248Y29945*X32269Y29966*X32290Y30051*X32332Y30114*X32353Y30198*X32374Y30219*X32395Y30303*X32437Y30366*X32458Y30450*X32479Y30471*X32500Y30555*X32521Y30576*X32542Y30661*X32584Y30724*X32606Y30808*X32626Y30829*X32648Y30913*X32690Y30976*X32711Y31060*X32732Y31082*X32753Y31250*X32732Y31271*Y31292*X32669Y31313*X32563Y31397*X32500Y31418*X32353Y31544*X32332*X32206Y31650*X32185*X31890Y31923*X31722Y32112*Y32134*X31617Y32260*Y32281*X31533Y32386*X31364Y32722*X31343Y32807*X31322Y32828*X31301Y32933*X31280Y32954*X31259Y33080*X31238Y33101*X31217Y33290*X31196Y33312*X31175Y33648*X31196Y34174*X31217Y34195*X31238Y34364*X31259Y34384*X31280Y34511*X31301Y34532*X31322Y34637*X31343Y34658*X31364Y34742*X31406Y34805*X31427Y34890*X31490Y34974*X31554Y35121*X31659Y35247*Y35268*X31785Y35415*Y35436*X32227Y35857*X32248*X32353Y35941*X32374*X32458Y36004*X32479*X32563Y36068*X32732Y36152*X32816Y36173*X32879Y36215*X32984Y36236*X33005Y36257*X33131Y36278*X33152Y36299*X33321Y36320*X33342Y36341*X33636Y36362*X33763Y36383*X34141Y36362*X34162Y36341*X34373Y36320*X34394Y36299*X34541Y36278*X34562Y36257*X34667Y36236*X34688Y36215*X34772Y36194*X34836Y36152*X34920Y36131*X35088Y36046*X35172Y35984*X35193*X35298Y35899*X35319*X35488Y35752*X35509*X35908Y35331*Y35310*X36014Y35184*Y35163*X36077Y35079*X36119Y34974*X36182Y34890*X36203Y34805*X36266Y34700*X36287Y34595*X36308Y34574*X36329Y34469*X36350Y34448*X36371Y34279*X36392Y34258*X36414Y34006*X36434Y33985*X36414Y33312*X36392Y33290*X36371Y33101*X36350Y33080*X36329Y32954*X36308Y32933*X36287Y32828*X36245Y32765*X36224Y32680*X36077Y32386*X35993Y32281*Y32260*X35888Y32134*Y32112*X35614Y31818*X35425Y31650*X35404*X35277Y31544*X35256*X35109Y31418*X35046Y31397*X34941Y31313*X34878Y31292*X34857Y31166*X34878Y31082*X34941Y30976*X34962Y30892*X34983Y30871*X35004Y30787*X35025Y30766*X35046Y30682*X35088Y30619*X35109Y30534*X35130Y30514*X35151Y30429*X35172Y30408*X35193Y30324*X35235Y30261*X35256Y30177*X35277Y30156*X35298Y30072*X35340Y30008*X35362Y29924*X35383Y29903*X35404Y29819*X35425Y29798*X35446Y29714*X35488Y29651*X35509Y29567*X35530Y29546*X35551Y29462*X35572Y29440*X35593Y29356*X35635Y29293*X35656Y29209*X35677Y29188*X35698Y29104*X35740Y29041*X35761Y28957*X35782Y28936*X35803Y28852*X35824Y28830*X35845Y28746*X35888Y28683*X35908Y28599*X35930Y28578*X35951Y28494*X35993Y28431*X36014Y28346*X36035Y28326*X36056Y28241*X36077Y28220*X36098Y28136*X36140Y28073*X36161Y27989*X36182Y27968*X36203Y27884*X36224Y27863*X36245Y27778*X36287Y27715*X36308Y27631*X36329Y27610*X36350Y27526*X36392Y27463*X36414Y27379*X36434Y27358*X36456Y27274*X36477Y27252*X36498Y27168*X36519Y27126*X36540Y27105*X36666Y27126*X36750Y27189*X36982Y27294*X37066Y27358*X37297Y27463*X37381Y27526*X37465Y27547*X37486Y27568*X37592Y27547*X37676Y27484*X37697*X37802Y27400*X37823*X37949Y27294*X37970*X38076Y27210*X38096*X38223Y27105*X38244*X38349Y27021*X38370*X38475Y26937*X38496*X38622Y26832*X38644*X38749Y26748*X38770*X38875Y26664*X38896*X39022Y26558*X39043*X39148Y26474*X39169*X39296Y26369*X39317*X39422Y26285*X39527Y26264*X39653Y26369*X41273Y27989*X41252Y28136*X41147Y28262*Y28283*X41063Y28389*Y28410*X40979Y28515*Y28536*X40874Y28662*Y28683*X40790Y28788*Y28809*X40705Y28915*Y28936*X40600Y29062*Y29083*X40516Y29188*Y29209*X40432Y29314*Y29335*X40327Y29462*Y29483*X40242Y29588*Y29609*X40158Y29714*Y29735*X40053Y29861*Y29882*X39969Y29988*X39948Y30093*X39969Y30114*X39990Y30219*X40032Y30282*X40053Y30366*X40074Y30387*X40095Y30471*X40116Y30492*X40137Y30576*X40158Y30598*X40179Y30682*X40200Y30703*X40221Y30787*X40242Y30808*X40264Y30892*X40285Y30913*X40306Y30997*X40327Y31018*X40348Y31102*X40369Y31124*X40390Y31208*X40411Y31229*X40432Y31313*X40453Y31334*X40474Y31418*X40495Y31439*X40516Y31523*X40537Y31544*X40558Y31629*X40579Y31650*X40600Y31734*X40621Y31755*X40642Y31839*X40663Y31860*X40684Y31944*X40810Y32049*X41021Y32070*X41042Y32091*X41252Y32112*X41273Y32134*X41463Y32154*X41484Y32176*X41694Y32197*X41715Y32218*X41926Y32239*X41946Y32260*X42157Y32281*X42178Y32302*X42367Y32323*X42388Y32344*X42599Y32365*X42620Y32386*X42830Y32407*X42851Y32428*X43041Y32449*X43062Y32470*X43104*X43146Y32512*X43125Y35016*X43041Y35037*X43020Y35058*X42809Y35079*X42788Y35100*X42578Y35121*X42557Y35142*X42346Y35163*X42325Y35184*X42136Y35205*X42115Y35226*X41904Y35247*X41883Y35268*X41673Y35289*X41652Y35310*X41442Y35331*X41421Y35352*X41231Y35373*X41210Y35394*X41000Y35415*X40979Y35436*X40768Y35458*X40684Y35500*X40621Y35584*X40558Y35710*X40537Y35794*X40495Y35857*X40474Y35941*X40432Y36004*X40411Y36089*X40369Y36152*X40348Y36236*X40306Y36299*X40285Y36383*X40242Y36446*X40221Y36530*X40179Y36594*X40158Y36678*X40116Y36741*X40095Y36825*X40053Y36888*X40032Y36972*X39990Y37035*X39969Y37120*X39927Y37183*X39906Y37267*X39885Y37288*X39906Y37414*X39990Y37519*Y37540*X40074Y37646*Y37667*X40158Y37772*Y37793*X40264Y37919*Y37940*X40348Y38045*Y38066*X40432Y38172*Y38192*X40537Y38319*Y38340*X40621Y38445*Y38466*X40705Y38571*Y38592*X40810Y38718*Y38740*X40895Y38845*Y38866*X40979Y38971*Y38992*X41084Y39118*Y39139*X41168Y39244*Y39265*X41252Y39371*X41273Y39497*X41168Y39623*X39569Y41222*X39506Y41243*X39485*X39401Y41201*X39296Y41117*X39275*X39148Y41012*X39128*X39022Y40928*X39001*X38875Y40822*X38854*X38749Y40738*X38728*X38622Y40654*X38601*X38475Y40549*X38454*X38349Y40465*X38328*X38202Y40359*X38181*X38076Y40275*X38054*X37949Y40191*X37928*X37802Y40086*X37781*X37676Y40002*X37655*X37528Y39896*X37507*X37423Y39833*X37318Y39812*X37297Y39833*X37213Y39854*X37192Y39876*X37108Y39896*X37087Y39918*X37003Y39939*X36982Y39960*X36897Y39981*X36876Y40002*X36792Y40023*X36729Y40065*X36645Y40086*X36624Y40107*X36540Y40128*X36519Y40149*X36434Y40170*X36371Y40212*X36287Y40233*X36266Y40254*X36182Y40275*X36161Y40296*X36077Y40317*X36056Y40338*X35972Y40359*X35908Y40402*X35824Y40422*X35803Y40444*X35719Y40465*X35698Y40486*X35656*X35530Y40633*X35509Y40822*X35488Y40843*X35467Y41054*X35446Y41075*X35425Y41285*X35404Y41306*X35383Y41516*X35362Y41538*X35340Y41727*X35319Y41748*X35298Y41958*X35277Y41979*X35256Y42190*X35235Y42211*X35214Y42421*X35193Y42442*X35172Y42632*X35151Y42652*X35130Y42863*X35109Y42884*X35088Y43052*X35004Y43115*X35025Y43136*G37*D10*G1X19580Y76960D2*X20500D1*X31400D2*X32360D1*X19580D2*Y57280D1*X20540*X31440D2*X32360D1*Y76960*X16090Y38180D2*Y38370D1*Y30090D2*Y29890D1*X9400Y38180D2*Y38370D1*X16090*X5720Y45800D2*Y32040D1*X9400Y30090D2*Y29890D1*X16090*X-9900Y38610D2*Y38810D1*X-16590*Y38610*X-5800Y45800D2*Y32040D1*X-9900Y30520D2*Y30330D1*X-16590*Y30520*X-35000Y0D2*X35000D1*Y17500*X42500Y25000*X75000*Y165000*X-75000*Y25000*X-42500*X-35000Y17500*Y0*D12*X72690Y88500D2*X73610D1*X72690Y90980D2*X73150Y91600D1*Y88500*X69207D2*X69973D1*X70280Y88655*X70510Y88862*X70702Y89172*X70855Y89533*X70893Y90050*X70855Y90567*X70702Y90928*X70510Y91238*X70280Y91445*X69973Y91600*X69207*Y88500*X71208Y153078D2*X69292D1*X70710Y155300*Y152200*X66690D2*X67610D1*X66690Y154680D2*X67150Y155300D1*Y152200*X63207D2*X63973D1*X64280Y152355*X64510Y152562*X64702Y152872*X64855Y153233*X64893Y153750*X64855Y154267*X64702Y154628*X64510Y154938*X64280Y155145*X63973Y155300*X63207*Y152200*X64825Y140600D2*X63790D1*X63675Y139257*X64020Y139463*X64288Y139515*X64557Y139463*X64825Y139257*X65017Y138998*X65093Y138585*X65055Y138172*X64863Y137810*X64595Y137603*X64250Y137500*X63905Y137552*X63637Y137707*X63407Y137965*X60690Y137500D2*X61610D1*X60690Y139980D2*X61150Y140600D1*Y137500*X59008Y137965D2*X58817Y137758D1*X58587Y137603*X58318Y137500*X58050*X57782Y137603*X57513Y137810*X57283Y138120*X57168Y138430*X57092Y138895*X57130Y139360*X57283Y139877*X57475Y140187*X57743Y140445*X58088Y140600*X58395*X58663Y140497*X58893Y140342*X52800Y113810D2*Y112890D1*X55280Y113810D2*X55900Y113350D1*X52800*Y116910D2*Y115990D1*X55280Y116910D2*X55900Y116450D1*X52800*X55900Y118707D2*X53678D1*X53213Y118860*X52903Y119167*X52800Y119550*X52903Y119933*X53213Y120240*X53678Y120393*X55900*X58000Y102610D2*Y101690D1*X60480Y102610D2*X61100Y102150D1*X58000*Y105710D2*Y104790D1*X60480Y105710D2*X61100Y105250D1*X58000*Y107583D2*X59498Y108158D1*Y109117D2*Y108158D1*X59653Y107890*X59912Y107660*X60325Y107583*X60738Y107660*X60945Y107852*X61100Y108158*Y109117*X58000*Y94645D2*Y96255D1*X58465Y96178*X58982Y95948*X59343Y95603*X59860Y94837*X60118Y94683*X60428Y94645*X60738Y94722*X60997Y94990*X61100Y95373*X61048Y95680*X60893Y95948*X60583Y96178*X58000Y97783D2*X59498Y98358D1*Y99317D2*Y98358D1*X59653Y98090*X59912Y97860*X60325Y97783*X60738Y97860*X60945Y98052*X61100Y98358*Y99317*X58000*X42302Y162438D2*X42110Y162697D1*X41842Y162800*X41573Y162748*X41305Y162490*X41113Y162128*X40998Y161767*X40922Y161095*X40960Y160578*X41113Y160113*X41382Y159803*X41688Y159700*X41957Y159803*X42187Y160062*X42340Y160372*X42378Y160682*X42340Y161043*X42187Y161353*X41995Y161560*X41727Y161663*X41420Y161560*X41190Y161353*X40922Y160992*X39508Y160578D2*X37592D1*X39010Y162800*Y159700*X36217D2*X35642Y161198D1*X34683D2*X35642D1*X35910Y161353*X36140Y161612*X36217Y162025*X36140Y162438*X35948Y162645*X35642Y162800*X34683*Y159700*X41322Y148608D2*Y146692D1*X39100Y148110*X42200*Y144090D2*Y145010D1*X39720Y144090D2*X39100Y144550D1*X42200*X41735Y142408D2*X41942Y142217D1*X42097Y141987*X42200Y141718*Y141450*X42097Y141182*X41890Y140913*X41580Y140683*X41270Y140568*X40805Y140492*X40340Y140530*X39823Y140683*X39513Y140875*X39255Y141143*X39100Y141488*Y141795*X39203Y142063*X39358Y142293*X50100Y130345D2*Y131955D1*X50565Y131878*X51082Y131648*X51443Y131303*X51960Y130537*X52218Y130383*X52528Y130345*X52838Y130422*X53097Y130690*X53200Y131073*X53148Y131380*X52993Y131648*X52683Y131878*X50100Y135093D2*Y134327D1*X50255Y134020*X50462Y133790*X50772Y133598*X51133Y133445*X51650Y133407*X52167Y133445*X52528Y133598*X52838Y133790*X53045Y134020*X53200Y134327*Y135093*X50100*X40390Y101400D2*X41310D1*X40390Y103880D2*X40850Y104500D1*Y101400*X38517D2*X37942Y102898D1*X36983D2*X37942D1*X38210Y103053*X38440Y103312*X38517Y103725*X38440Y104138*X38248Y104345*X37942Y104500*X36983*Y101400*X38000Y92890D2*Y93810D1*X35520Y92890D2*X34900Y93350D1*X38000*Y89790D2*Y90710D1*X35520Y89790D2*X34900Y90250D1*X38000*Y86307D2*Y87073D1*X37845Y87380*X37638Y87610*X37328Y87802*X36967Y87955*X36450Y87993*X35933Y87955*X35572Y87802*X35262Y87610*X35055Y87380*X34900Y87073*Y86307*X38000*X43455Y67200D2*X41845D1*X41922Y67665*X42152Y68182*X42497Y68543*X43263Y69060*X43417Y69318*X43455Y69628*X43378Y69938*X43110Y70197*X42727Y70300*X42420Y70248*X42152Y70093*X41922Y69783*X39090Y67200D2*X40010D1*X39090Y69680D2*X39550Y70300D1*Y67200*X37293Y70300D2*Y68078D1*X37140Y67613*X36833Y67303*X36450Y67200*X36067Y67303*X35760Y67613*X35607Y68078*Y70300*X46500Y60155D2*Y58545D1*X46035Y58622*X45518Y58852*X45157Y59197*X44640Y59963*X44382Y60117*X44072Y60155*X43762Y60078*X43503Y59810*X43400Y59427*X43452Y59120*X43607Y58852*X43917Y58622*X43400Y57093D2*X45622D1*X46087Y56940*X46397Y56633*X46500Y56250*X46397Y55867*X46087Y55560*X45622Y55407*X43400*X43855Y44900D2*X42245D1*X42322Y45365*X42552Y45882*X42897Y46243*X43663Y46760*X43817Y47018*X43855Y47328*X43778Y47638*X43510Y47897*X43127Y48000*X42820Y47948*X42552Y47793*X42322Y47483*X39183Y46192D2*X40103D1*X40448Y46347*X40640Y46657*X40717Y47070*X40640Y47483*X40410Y47845*X40103Y48000*X39183*Y44900*X37617Y48000D2*Y45933D1*X37540Y45520*X37310Y45210*X37080Y45003*X36773Y44900*X36505Y45003*X36275Y45210*X36083Y45520*X24262Y160702D2*X24003Y160510D1*X23900Y160242*X23952Y159973*X24210Y159705*X24572Y159513*X24933Y159398*X25605Y159322*X26122Y159360*X26587Y159513*X26897Y159782*X27000Y160088*X26897Y160357*X26638Y160587*X26328Y160740*X26018Y160778*X25657Y160740*X25347Y160587*X25140Y160395*X25037Y160127*X25140Y159820*X25347Y159590*X25708Y159322*X24158Y156413D2*X23952Y156758D1*X23900Y157103*X24055Y157448*X24313Y157640*X24623Y157717*X24933Y157640*X25192Y157448*X25347Y157218*Y156873D2*Y157218D1*X25450Y157487*X25708Y157755*X26070Y157832*X26380Y157793*X26690Y157602*X26948Y157295*X27000Y156988*X26948Y156643*X26742Y156337*X26380Y156107*X27000Y154617D2*X25502Y154042D1*Y153083D2*Y154042D1*X25347Y154310*X25088Y154540*X24675Y154617*X24262Y154540*X24055Y154348*X23900Y154042*Y153083*X27000*X31600Y134150D2*X31548Y133882D1*X31393Y133575*X31135Y133383*X30773Y133307*X30412Y133383*X30102Y133613*X29947Y133958*Y134342*X29843Y134572*X29585Y134763*X29223Y134840*X28862Y134725*X28603Y134457*X28500Y134150*X28603Y133843*X28862Y133575*X29223Y133460*X29585Y133537*X29843Y133728*X29947Y133958*Y134342*X30102Y134687*X30412Y134917*X30773Y134993*X31135Y134917*X31393Y134725*X31548Y134418*X31600Y134150*X28758Y130513D2*X28552Y130858D1*X28500Y131203*X28655Y131548*X28913Y131740*X29223Y131817*X29533Y131740*X29792Y131548*X29947Y131318*Y130973D2*Y131318D1*X30050Y131587*X30308Y131855*X30670Y131932*X30980Y131893*X31290Y131702*X31548Y131395*X31600Y131088*X31548Y130743*X31342Y130437*X30980Y130207*X31135Y128908D2*X31342Y128717D1*X31497Y128487*X31600Y128218*Y127950*X31497Y127682*X31290Y127413*X30980Y127183*X30670Y127068*X30205Y126992*X29740Y127030*X29223Y127183*X28913Y127375*X28655Y127643*X28500Y127988*Y128295*X28603Y128563*X28758Y128793*X37055Y120000D2*X35445D1*X35522Y120465*X35752Y120982*X36097Y121343*X36863Y121860*X37017Y122118*X37055Y122428*X36978Y122738*X36710Y122997*X36327Y123100*X36020Y123048*X35752Y122893*X35522Y122583*X32690Y120000D2*X33610D1*X32690Y122480D2*X33150Y123100D1*Y120000*X30817D2*X30242Y121498D1*X29283D2*X30242D1*X30510Y121653*X30740Y121912*X30817Y122325*X30740Y122738*X30548Y122945*X30242Y123100*X29283*Y120000*X28083Y99300D2*X29617D1*X29310Y98525*X29118Y97957*X28965Y97440*X28850Y96872*X28773Y96200*X25213Y99042D2*X25558Y99248D1*X25903Y99300*X26248Y99145*X26440Y98887*X26517Y98577*X26440Y98267*X26248Y98008*X26018Y97853*X25673D2*X26018D1*X26287Y97750*X26555Y97492*X26632Y97130*X26593Y96820*X26402Y96510*X26095Y96252*X25788Y96200*X25443Y96252*X25137Y96458*X24907Y96820*X23417Y96200D2*X22842Y97698D1*X21883D2*X22842D1*X23110Y97853*X23340Y98112*X23417Y98525*X23340Y98938*X23148Y99145*X22842Y99300*X21883*Y96200*X30155Y85300D2*X28545D1*X28622Y85765*X28852Y86282*X29197Y86643*X29963Y87160*X30117Y87418*X30155Y87728*X30078Y88038*X29810Y88297*X29427Y88400*X29120Y88348*X28852Y88193*X28622Y87883*X27208Y86178D2*X25292D1*X26710Y88400*Y85300*X24108Y85765D2*X23917Y85558D1*X23687Y85403*X23418Y85300*X23150*X22882Y85403*X22613Y85610*X22383Y85920*X22268Y86230*X22192Y86695*X22230Y87160*X22383Y87677*X22575Y87987*X22843Y88245*X23188Y88400*X23495*X23763Y88297*X23993Y88142*X33800Y59210D2*Y58290D1*X36280Y59210D2*X36900Y58750D1*X33800*X36900Y61083D2*X35195Y61850D1*X36900Y62617D2*X35195Y61850D1*X33800*X38213Y53942D2*X38558Y54148D1*X38903Y54200*X39248Y54045*X39440Y53787*X39517Y53477*X39440Y53167*X39248Y52908*X39018Y52753*X38673D2*X39018D1*X39287Y52650*X39555Y52392*X39632Y52030*X39593Y51720*X39402Y51410*X39095Y51152*X38788Y51100*X38443Y51152*X38137Y51358*X37907Y51720*X36608Y51978D2*X34692D1*X36110Y54200*Y51100*X33508Y51565D2*X33317Y51358D1*X33087Y51203*X32818Y51100*X32550*X32282Y51203*X32013Y51410*X31783Y51720*X31668Y52030*X31592Y52495*X31630Y52960*X31783Y53477*X31975Y53787*X32243Y54045*X32588Y54200*X32895*X33163Y54097*X33393Y53942*X19400Y35650D2*X19452Y35918D1*X19607Y36225*X19865Y36417*X20227Y36493*X20588Y36417*X20898Y36187*X21053Y35842*Y35458*X21157Y35228*X21415Y35037*X21777Y34960*X22138Y35075*X22397Y35343*X22500Y35650*X22397Y35957*X22138Y36225*X21777Y36340*X21415Y36263*X21157Y36072*X21053Y35842*Y35458*X20898Y35113*X20588Y34883*X20227Y34807*X19865Y34883*X19607Y35075*X19452Y35382*X19400Y35650*Y37945D2*Y39555D1*X19865Y39478*X20382Y39248*X20743Y38903*X21260Y38137*X21518Y37983*X21828Y37945*X22138Y38022*X22397Y38290*X22500Y38673*X22448Y38980*X22293Y39248*X21983Y39478*X19400Y41083D2*X20898Y41658D1*Y42617D2*Y41658D1*X21053Y41390*X21312Y41160*X21725Y41083*X22138Y41160*X22345Y41352*X22500Y41658*Y42617*X19400*X15702Y55938D2*X15510Y56197D1*X15242Y56300*X14973Y56248*X14705Y55990*X14513Y55628*X14398Y55267*X14322Y54595*X14360Y54078*X14513Y53613*X14782Y53303*X15088Y53200*X15357Y53303*X15587Y53562*X15740Y53872*X15778Y54182*X15740Y54543*X15587Y54853*X15395Y55060*X15127Y55163*X14820Y55060*X14590Y54853*X14322Y54492*X11490Y53200D2*X12410D1*X11490Y55680D2*X11950Y56300D1*Y53200*X9617D2*X9042Y54698D1*X8083D2*X9042D1*X9310Y54853*X9540Y55112*X9617Y55525*X9540Y55938*X9348Y56145*X9042Y56300*X8083*Y53200*X13713Y28842D2*X14058Y29048D1*X14403Y29100*X14748Y28945*X14940Y28687*X15017Y28377*X14940Y28067*X14748Y27808*X14518Y27653*X14173D2*X14518D1*X14787Y27550*X15055Y27292*X15132Y26930*X15093Y26620*X14902Y26310*X14595Y26052*X14288Y26000*X13943Y26052*X13637Y26258*X13407Y26620*X11457Y26827D2*X11917Y26000D1*X11150D2*X11457Y26052D1*X11725Y26258*X11955Y26568*X12108Y26930*X12185Y27343*Y27757*X12108Y28170*X11955Y28532*X11725Y28842*X11457Y29048*X11150Y29100*X10843Y29048*X10575Y28842*X10345Y28532*X10192Y28170*X10115Y27757*Y27343*X10192Y26930*X10345Y26568*X10575Y26258*X10843Y26052*X11150Y26000*X3350Y123100D2*X3657Y122997D1*X3887Y122738*X4040Y122428*X4155Y122015*X4193Y121550*X4155Y121085*X4040Y120672*X3887Y120362*X3657Y120103*X3350Y120000*X3043Y120103*X2813Y120362*X2660Y120672*X2545Y121085*X2507Y121550*X2545Y122015*X2660Y122428*X2813Y122738*X3043Y122997*X3350Y123100*X-210Y120000D2*X710D1*X-210Y122480D2*X250Y123100D1*Y120000*X-2007Y123100D2*Y120878D1*X-2160Y120413*X-2467Y120103*X-2850Y120000*X-3233Y120103*X-3540Y120413*X-3693Y120878*Y123100*X-10850Y95800D2*X-11118Y95852D1*X-11425Y96007*X-11617Y96265*X-11693Y96627*X-11617Y96988*X-11387Y97298*X-11042Y97453*X-10658*X-10428Y97557*X-10237Y97815*X-10160Y98177*X-10275Y98538*X-10543Y98797*X-10850Y98900*X-11157Y98797*X-11425Y98538*X-11540Y98177*X-11463Y97815*X-11272Y97557*X-11042Y97453*X-10658*X-10313Y97298*X-10083Y96988*X-10007Y96627*X-10083Y96265*X-10275Y96007*X-10582Y95852*X-10850Y95800*X-14410D2*X-13490D1*X-14410Y98280D2*X-13950Y98900D1*Y95800*X-16207Y98900D2*Y96678D1*X-16360Y96213*X-16667Y95903*X-17050Y95800*X-17433Y95903*X-17740Y96213*X-17893Y96678*Y98900*X4055Y47600D2*X2445D1*X2522Y48065*X2752Y48582*X3097Y48943*X3863Y49460*X4017Y49718*X4055Y50028*X3978Y50338*X3710Y50597*X3327Y50700*X3020Y50648*X2752Y50493*X2522Y50183*X-310Y47600D2*X610D1*X-310Y50080D2*X150Y50700D1*Y47600*X-3793D2*X-3027D1*X-2720Y47755*X-2490Y47962*X-2298Y48272*X-2145Y48633*X-2107Y49150*X-2145Y49667*X-2298Y50028*X-2490Y50338*X-2720Y50545*X-3027Y50700*X-3793*Y47600*X-8698Y49938D2*X-8890Y50197D1*X-9158Y50300*X-9427Y50248*X-9695Y49990*X-9887Y49628*X-10002Y49267*X-10078Y48595*X-10040Y48078*X-9887Y47613*X-9618Y47303*X-9312Y47200*X-9043Y47303*X-8813Y47562*X-8660Y47872*X-8622Y48182*X-8660Y48543*X-8813Y48853*X-9005Y49060*X-9273Y49163*X-9580Y49060*X-9810Y48853*X-10078Y48492*X-11645Y47200D2*X-13255D1*X-13178Y47665*X-12948Y48182*X-12603Y48543*X-11837Y49060*X-11683Y49318*X-11645Y49628*X-11722Y49938*X-11990Y50197*X-12373Y50300*X-12680Y50248*X-12948Y50093*X-13178Y49783*X-14783Y47200D2*X-15358Y48698D1*X-16317D2*X-15358D1*X-15090Y48853*X-14860Y49112*X-14783Y49525*X-14860Y49938*X-15052Y50145*X-15358Y50300*X-16317*Y47200*X-10445Y26000D2*X-12055D1*X-11978Y26465*X-11748Y26982*X-11403Y27343*X-10637Y27860*X-10483Y28118*X-10445Y28428*X-10522Y28738*X-10790Y28997*X-11173Y29100*X-11480Y29048*X-11748Y28893*X-11978Y28583*X-14043Y26827D2*X-13583Y26000D1*X-14350D2*X-14043Y26052D1*X-13775Y26258*X-13545Y26568*X-13392Y26930*X-13315Y27343*Y27757*X-13392Y28170*X-13545Y28532*X-13775Y28842*X-14043Y29048*X-14350Y29100*X-14657Y29048*X-14925Y28842*X-15155Y28532*X-15308Y28170*X-15385Y27757*Y27343*X-15308Y26930*X-15155Y26568*X-14925Y26258*X-14657Y26052*X-14350Y26000*X-31658Y128587D2*X-31452Y128242D1*X-31400Y127897*X-31555Y127552*X-31813Y127360*X-32123Y127283*X-32433Y127360*X-32692Y127552*X-32847Y127782*Y128127D2*Y127782D1*X-32950Y127513*X-33208Y127245*X-33570Y127168*X-33880Y127207*X-34190Y127398*X-34448Y127705*X-34500Y128012*X-34448Y128357*X-34242Y128663*X-33880Y128893*X-31658Y131687D2*X-31452Y131342D1*X-31400Y130997*X-31555Y130652*X-31813Y130460*X-32123Y130383*X-32433Y130460*X-32692Y130652*X-32847Y130882*Y131227D2*Y130882D1*X-32950Y130613*X-33208Y130345*X-33570Y130268*X-33880Y130307*X-34190Y130498*X-34448Y130805*X-34500Y131112*X-34448Y131457*X-34242Y131763*X-33880Y131993*X-34500Y133483D2*X-33002Y134058D1*Y135017D2*Y134058D1*X-32847Y133790*X-32588Y133560*X-32175Y133483*X-31762Y133560*X-31555Y133752*X-31400Y134058*Y135017*X-34500*X-33622Y106692D2*Y108608D1*X-31400Y107190*X-34500*X-31658Y111287D2*X-31452Y110942D1*X-31400Y110597*X-31555Y110252*X-31813Y110060*X-32123Y109983*X-32433Y110060*X-32692Y110252*X-32847Y110482*Y110827D2*Y110482D1*X-32950Y110213*X-33208Y109945*X-33570Y109868*X-33880Y109907*X-34190Y110098*X-34448Y110405*X-34500Y110712*X-34448Y111057*X-34242Y111363*X-33880Y111593*X-34500Y113083D2*X-33002Y113658D1*Y114617D2*Y113658D1*X-32847Y113390*X-32588Y113160*X-32175Y113083*X-31762Y113160*X-31555Y113352*X-31400Y113658*Y114617*X-34500*X-23845Y95600D2*X-25455D1*X-25378Y96065*X-25148Y96582*X-24803Y96943*X-24037Y97460*X-23883Y97718*X-23845Y98028*X-23922Y98338*X-24190Y98597*X-24573Y98700*X-24880Y98648*X-25148Y98493*X-25378Y98183*X-26792Y96478D2*X-28708D1*X-27290Y98700*Y95600*X-30083D2*X-30658Y97098D1*X-31617D2*X-30658D1*X-30390Y97253*X-30160Y97512*X-30083Y97925*X-30160Y98338*X-30352Y98545*X-30658Y98700*X-31617*Y95600*X-19400Y63550D2*X-19503Y63243D1*X-19762Y63013*X-20072Y62860*X-20485Y62745*X-20950Y62707*X-21415Y62745*X-21828Y62860*X-22138Y63013*X-22397Y63243*X-22500Y63550*X-22397Y63857*X-22138Y64087*X-21828Y64240*X-21415Y64355*X-20950Y64393*X-20485Y64355*X-20072Y64240*X-19762Y64087*X-19503Y63857*X-19400Y63550*Y66075D2*Y67110D1*X-20743Y67225*X-20537Y66880*X-20485Y66612*X-20537Y66343*X-20743Y66075*X-21002Y65883*X-21415Y65807*X-21828Y65845*X-22190Y66037*X-22397Y66305*X-22500Y66650*X-22448Y66995*X-22293Y67263*X-22035Y67493*Y68792D2*X-22242Y68983D1*X-22397Y69213*X-22500Y69482*Y69750*X-22397Y70018*X-22190Y70287*X-21880Y70517*X-21570Y70632*X-21105Y70708*X-20640Y70670*X-20123Y70517*X-19813Y70325*X-19555Y70057*X-19400Y69712*Y69405*X-19503Y69137*X-19658Y68907*X-29012Y38817D2*X-28547Y38587D1*X-28288Y38357*X-28185Y38050*X-28237Y37782*X-28443Y37552*X-28805Y37360*X-29167Y37283*X-29580Y37360*X-29890Y37513*X-30097Y37743*X-30200Y38050*X-30097Y38318*X-29890Y38548*X-29477Y38740*X-29012Y38817*X-28443*X-27978Y38740*X-27513Y38548*X-27203Y38280*X-27100Y37973*X-27203Y37667*X-27462Y37398*X-29942Y34413D2*X-30148Y34758D1*X-30200Y35103*X-30045Y35448*X-29787Y35640*X-29477Y35717*X-29167Y35640*X-28908Y35448*X-28753Y35218*Y34873D2*Y35218D1*X-28650Y35487*X-28392Y35755*X-28030Y35832*X-27720Y35793*X-27410Y35602*X-27152Y35295*X-27100Y34988*X-27152Y34643*X-27358Y34337*X-27720Y34107*X-27100Y32617D2*X-28598Y32042D1*Y31083D2*Y32042D1*X-28753Y32310*X-29012Y32540*X-29425Y32617*X-29838Y32540*X-30045Y32348*X-30200Y32042*Y31083*X-27100*X-41900Y138845D2*Y140455D1*X-41435Y140378*X-40918Y140148*X-40557Y139803*X-40040Y139037*X-39782Y138883*X-39472Y138845*X-39162Y138922*X-38903Y139190*X-38800Y139573*X-38852Y139880*X-39007Y140148*X-39317Y140378*X-39058Y143287D2*X-38852Y142942D1*X-38800Y142597*X-38955Y142252*X-39213Y142060*X-39523Y141983*X-39833Y142060*X-40092Y142252*X-40247Y142482*Y142827D2*Y142482D1*X-40350Y142213*X-40608Y141945*X-40970Y141868*X-41280Y141907*X-41590Y142098*X-41848Y142405*X-41900Y142712*X-41848Y143057*X-41642Y143363*X-41280Y143593*X-41900Y145083D2*X-40402Y145658D1*Y146617D2*Y145658D1*X-40247Y145390*X-39988Y145160*X-39575Y145083*X-39162Y145160*X-38955Y145352*X-38800Y145658*Y146617*X-41900*X-34375Y124700D2*X-35410D1*X-35525Y123357*X-35180Y123563*X-34912Y123615*X-34643Y123563*X-34375Y123357*X-34183Y123098*X-34107Y122685*X-34145Y122272*X-34337Y121910*X-34605Y121703*X-34950Y121600*X-35295Y121652*X-35563Y121807*X-35793Y122065*X-38510Y121600D2*X-37590D1*X-38510Y124080D2*X-38050Y124700D1*Y121600*X-40383D2*X-40958Y123098D1*X-41917D2*X-40958D1*X-40690Y123253*X-40460Y123512*X-40383Y123925*X-40460Y124338*X-40652Y124545*X-40958Y124700*X-41917*Y121600*X-33692Y102678D2*X-35608D1*X-34190Y104900*Y101800*X-38210D2*X-37290D1*X-38210Y104280D2*X-37750Y104900D1*Y101800*X-40083D2*X-40658Y103298D1*X-41617D2*X-40658D1*X-40390Y103453*X-40160Y103712*X-40083Y104125*X-40160Y104538*X-40352Y104745*X-40658Y104900*X-41617*Y101800*X-30787Y92042D2*X-30442Y92248D1*X-30097Y92300*X-29752Y92145*X-29560Y91887*X-29483Y91577*X-29560Y91267*X-29752Y91008*X-29982Y90853*X-30327D2*X-29982D1*X-29713Y90750*X-29445Y90492*X-29368Y90130*X-29407Y89820*X-29598Y89510*X-29905Y89252*X-30212Y89200*X-30557Y89252*X-30863Y89458*X-31093Y89820*X-32392Y90078D2*X-34308D1*X-32890Y92300*Y89200*X-35683D2*X-36258Y90698D1*X-37217D2*X-36258D1*X-35990Y90853*X-35760Y91112*X-35683Y91525*X-35760Y91938*X-35952Y92145*X-36258Y92300*X-37217*Y89200*X-32492Y45178D2*X-34408D1*X-32990Y47400*Y44300*X-35707Y47400D2*Y45178D1*X-35860Y44713*X-36167Y44403*X-36550Y44300*X-36933Y44403*X-37240Y44713*X-37393Y45178*Y47400*X-49645Y141600D2*X-51255D1*X-51178Y142065*X-50948Y142582*X-50603Y142943*X-49837Y143460*X-49683Y143718*X-49645Y144028*X-49722Y144338*X-49990Y144597*X-50373Y144700*X-50680Y144648*X-50948Y144493*X-51178Y144183*X-52745Y141600D2*X-54355D1*X-54278Y142065*X-54048Y142582*X-53703Y142943*X-52937Y143460*X-52783Y143718*X-52745Y144028*X-52822Y144338*X-53090Y144597*X-53473Y144700*X-53780Y144648*X-54048Y144493*X-54278Y144183*X-55692Y142065D2*X-55883Y141858D1*X-56113Y141703*X-56382Y141600*X-56650*X-56918Y141703*X-57187Y141910*X-57417Y142220*X-57532Y142530*X-57608Y142995*X-57570Y143460*X-57417Y143977*X-57225Y144287*X-56957Y144545*X-56612Y144700*X-56305*X-56037Y144597*X-55807Y144442*X-49475Y156000D2*X-50510D1*X-50625Y154657*X-50280Y154863*X-50012Y154915*X-49743Y154863*X-49475Y154657*X-49283Y154398*X-49207Y153985*X-49245Y153572*X-49437Y153210*X-49705Y153003*X-50050Y152900*X-50395Y152952*X-50663Y153107*X-50893Y153365*X-52192Y153778D2*X-54108D1*X-52690Y156000*Y152900*X-55483D2*X-56058Y154398D1*X-57017D2*X-56058D1*X-55790Y154553*X-55560Y154812*X-55483Y155225*X-55560Y155638*X-55752Y155845*X-56058Y156000*X-57017*Y152900*X-58810Y145400D2*X-57890D1*X-58810Y147880D2*X-58350Y148500D1*Y145400*X-60645D2*X-62255D1*X-62178Y145865*X-61948Y146382*X-61603Y146743*X-60837Y147260*X-60683Y147518*X-60645Y147828*X-60722Y148138*X-60990Y148397*X-61373Y148500*X-61680Y148448*X-61948Y148293*X-62178Y147983*X-63592Y145865D2*X-63783Y145658D1*X-64013Y145503*X-64282Y145400*X-64550*X-64818Y145503*X-65087Y145710*X-65317Y146020*X-65432Y146330*X-65508Y146795*X-65470Y147260*X-65317Y147777*X-65125Y148087*X-64857Y148345*X-64512Y148500*X-64205*X-63937Y148397*X-63707Y148242*X-64987Y155542D2*X-64642Y155748D1*X-64297Y155800*X-63952Y155645*X-63760Y155387*X-63683Y155077*X-63760Y154767*X-63952Y154508*X-64182Y154353*X-64527D2*X-64182D1*X-63913Y154250*X-63645Y153992*X-63568Y153630*X-63607Y153320*X-63798Y153010*X-64105Y152752*X-64412Y152700*X-64757Y152752*X-65063Y152958*X-65293Y153320*X-68010Y152700D2*X-67090D1*X-68010Y155180D2*X-67550Y155800D1*Y152700*X-71493D2*X-70727D1*X-70420Y152855*X-70190Y153062*X-69998Y153372*X-69845Y153733*X-69807Y154250*X-69845Y154767*X-69998Y155128*X-70190Y155438*X-70420Y155645*X-70727Y155800*X-71493*Y152700*X-54500Y105810D2*Y104890D1*X-52020Y105810D2*X-51400Y105350D1*X-54500*X-53622Y107492D2*Y109408D1*X-51400Y107990*X-54500*Y110783D2*X-53002Y111358D1*Y112317D2*Y111358D1*X-52847Y111090*X-52588Y110860*X-52175Y110783*X-51762Y110860*X-51555Y111052*X-51400Y111358*Y112317*X-54500*X-49092Y91278D2*X-51008D1*X-49590Y93500*Y90400*X-52192Y91278D2*X-54108D1*X-52690Y93500*Y90400*X-55483D2*X-56058Y91898D1*X-57017D2*X-56058D1*X-55790Y92053*X-55560Y92312*X-55483Y92725*X-55560Y93138*X-55752Y93345*X-56058Y93500*X-57017*Y90400*X-66075Y146400D2*X-67110D1*X-67225Y145057*X-66880Y145263*X-66612Y145315*X-66343Y145263*X-66075Y145057*X-65883Y144798*X-65807Y144385*X-65845Y143972*X-66037Y143610*X-66305Y143403*X-66650Y143300*X-66995Y143352*X-67263Y143507*X-67493Y143765*X-70287Y146142D2*X-69942Y146348D1*X-69597Y146400*X-69252Y146245*X-69060Y145987*X-68983Y145677*X-69060Y145367*X-69252Y145108*X-69482Y144953*X-69827D2*X-69482D1*X-69213Y144850*X-68945Y144592*X-68868Y144230*X-68907Y143920*X-69098Y143610*X-69405Y143352*X-69712Y143300*X-70057Y143352*X-70363Y143558*X-70593Y143920*X-72083Y143300D2*X-72658Y144798D1*X-73617D2*X-72658D1*X-72390Y144953*X-72160Y145212*X-72083Y145625*X-72160Y146038*X-72352Y146245*X-72658Y146400*X-73617*Y143300*X-72338Y123902D2*X-72597Y123710D1*X-72700Y123442*X-72648Y123173*X-72390Y122905*X-72028Y122713*X-71667Y122598*X-70995Y122522*X-70478Y122560*X-70013Y122713*X-69703Y122982*X-69600Y123288*X-69703Y123557*X-69962Y123787*X-70272Y123940*X-70582Y123978*X-70943Y123940*X-71253Y123787*X-71460Y123595*X-71563Y123327*X-71460Y123020*X-71253Y122790*X-70892Y122522*X-69600Y119690D2*Y120610D1*X-72080Y119690D2*X-72700Y120150D1*X-69600*X-72700Y117893D2*X-70478D1*X-70013Y117740*X-69703Y117433*X-69600Y117050*X-69703Y116667*X-70013Y116360*X-70478Y116207*X-72700*X-72800Y100883D2*Y102417D1*X-72025Y102110*X-71457Y101918*X-70940Y101765*X-70372Y101650*X-69700Y101573*Y98090D2*Y99010D1*X-72180Y98090D2*X-72800Y98550D1*X-69700*X-72800Y96293D2*X-70578D1*X-70113Y96140*X-69803Y95833*X-69700Y95450*X-69803Y95067*X-70113Y94760*X-70578Y94607*X-72800*X-73838Y87702D2*X-74097Y87510D1*X-74200Y87242*X-74148Y86973*X-73890Y86705*X-73528Y86513*X-73167Y86398*X-72495Y86322*X-71978Y86360*X-71513Y86513*X-71203Y86782*X-71100Y87088*X-71203Y87357*X-71462Y87587*X-71772Y87740*X-72082Y87778*X-72443Y87740*X-72753Y87587*X-72960Y87395*X-73063Y87127*X-72960Y86820*X-72753Y86590*X-72392Y86322*X-71100Y84755D2*Y83145D1*X-71565Y83222*X-72082Y83452*X-72443Y83797*X-72960Y84563*X-73218Y84717*X-73528Y84755*X-73838Y84678*X-74097Y84410*X-74200Y84027*X-74148Y83720*X-73993Y83452*X-73683Y83222*X-71565Y81808D2*X-71358Y81617D1*X-71203Y81387*X-71100Y81118*Y80850*X-71203Y80582*X-71410Y80313*X-71720Y80083*X-72030Y79968*X-72495Y79892*X-72960Y79930*X-73477Y80083*X-73787Y80275*X-74045Y80543*X-74200Y80888*Y81195*X-74097Y81463*X-73942Y81693*X-74200Y62825D2*Y61790D1*X-72857Y61675*X-73063Y62020*X-73115Y62288*X-73063Y62557*X-72857Y62825*X-72598Y63017*X-72185Y63093*X-71772Y63055*X-71410Y62863*X-71203Y62595*X-71100Y62250*X-71152Y61905*X-71307Y61637*X-71565Y61407*X-71100Y59955D2*Y58345D1*X-71565Y58422*X-72082Y58652*X-72443Y58997*X-72960Y59763*X-73218Y59917*X-73528Y59955*X-73838Y59878*X-74097Y59610*X-74200Y59227*X-74148Y58920*X-73993Y58652*X-73683Y58422*X-71565Y57008D2*X-71358Y56817D1*X-71203Y56587*X-71100Y56318*Y56050*X-71203Y55782*X-71410Y55513*X-71720Y55283*X-72030Y55168*X-72495Y55092*X-72960Y55130*X-73477Y55283*X-73787Y55475*X-74045Y55743*X-74200Y56088*Y56395*X-74097Y56663*X-73942Y56893*X-71300Y73190D2*Y74110D1*X-73780Y73190D2*X-74400Y73650D1*X-71300*Y71317D2*Y69783D1*X-74400*D13*X68440Y92250D2*Y86750D1*X56220Y147800D2*X51400D1*X54250Y163200D2*Y156750D1*X56220Y138700D2*X51400D1*Y147800*X56220Y138700D2*Y147800D1*X54080Y87340D2*Y91860D1*X54480Y92250*X54670D2*X68440D1*X56950Y107750D2*Y101300D1*X57050Y100700D2*Y94250D1*X54080Y87340D2*X54670Y86750D1*Y92250D2*Y86750D1*X68440*X42750Y163200D2*X54250D1*X42950Y140200D2*X50450D1*Y156200*X42950*Y140200*X54250Y156750D2*X42750D1*Y163200*X34200Y162450D2*Y150950D1*X43750Y139030D2*X44340Y139620D1*X48860*X49250Y139220*X43750Y125260D2*X49250D1*Y139030*X43750*Y125260*X39000Y136850D2*Y125350D1*X39150Y119350D2*Y112900D1*X56950Y107750D2*X45450D1*Y101300*X56950*X57050Y94250D2*X45550D1*X57050Y100700D2*X45550D1*Y94250*X44550Y100700D2*Y94250D1*X34200Y162450D2*X27750D1*Y150950*X34200*X32550Y136850D2*Y125350D1*X39000*X32550Y136850D2*X39000D1*X39150Y119350D2*X27650D1*Y112900*X39150*X19050Y88750D2*X30550D1*Y95200*X19050*Y88750*X44550Y94250D2*X33050D1*X44550Y100700D2*X33050D1*Y94250*X30700Y84420D2*Y79600D1*X21600*Y84420*X30700*Y54920D2*X21600D1*X18550Y45800D2*Y39350D1*X30700Y54920D2*Y50100D1*X21600*Y54920*X18550Y45950D2*Y52400D1*X7050*X18550Y39350D2*X7050D1*X18550Y45800D2*X7050D1*Y39350*X18550Y45950D2*X7050D1*Y52400*X-18600Y71600D2*Y80700D1*X-18450Y39850D2*Y46300D1*X-6950*Y39850*X-18450*X-35250Y137050D2*Y125550D1*Y117050D2*Y105550D1*X-32750Y100750D2*Y94300D1*X-18600Y80700D2*X-23420D1*X-18600Y71600D2*X-23420D1*Y80700*X-19900Y40650D2*X-26350D1*Y29150*X-19900*Y40650*X-49200Y147050D2*X-42750D1*X-47550Y163250D2*Y156800D1*X-49200Y132350D2*X-42750D1*X-35250Y137050D2*X-41700D1*Y125550*X-35250*X-42750Y147050D2*Y135550D1*X-49200Y147050D2*Y135550D1*X-42750*X-52100Y131600D2*Y140700D1*X-54350Y113250D2*X-42850D1*Y119700*X-54350*Y113250*X-42750Y132350D2*Y120850D1*X-49200Y132350D2*Y120850D1*X-42750*X-49100Y112350D2*X-42650D1*X-35250Y117050D2*X-41700D1*Y105550*X-35250*X-42650Y112350D2*Y100850D1*X-49100Y112350D2*Y100850D1*X-42650*X-32750Y100750D2*X-44250D1*Y94300*X-32750*X-44450Y100700D2*Y94250D1*X-38450Y94150D2*X-49950D1*Y87700*X-38450*Y94150*X-59050Y163250D2*X-47550D1*X-65450Y144400D2*X-57950D1*X-52100Y140700D2*X-56920D1*X-59050Y163250D2*Y156800D1*X-47550*X-65450Y144400D2*Y128400D1*X-57950*Y144400*X-66250Y142550D2*Y131050D1*X-52100Y131600D2*X-56920D1*Y140700*X-44450Y94250D2*X-55950D1*X-44450Y100700D2*X-55950D1*Y94250*X-66250Y142550D2*X-72700D1*Y131050*X-66250*D14*X73950Y41500D2*Y72500D1*X47550*Y41500*X-25600Y79700D2*X-24100D1*X-22600Y78200*Y56200*X-25600*X-44600Y79740D2*X-47600D1*Y56240*X-44600*D15*X72512Y162756D2*Y163543D1*Y157244D2*Y156457D1*X62276Y162756D2*Y163543D1*X71724*Y162756*X62276Y157244D2*Y156457D1*X71724*Y157244*X51806Y117581D2*Y115219D1*X41176*X39994Y116400*Y117581*X51806*X49543Y91469D2*Y92157D1*X42457*Y91469*Y87531D2*Y86843D1*X49543*Y87531*X17913Y59087D2*Y94913D1*X-17913*Y59087*X17913*X-62276Y162756D2*Y163543D1*X-71724*Y162756*X-62276Y157244D2*Y156457D1*X-71724*Y157244*X-56594Y120681D2*Y118319D1*X-67224*X-68406Y119500*Y120681*X-56594*X-68406Y97319D2*Y99681D1*X-57776*X-56594Y98500*Y97319*X-68406*X-47389Y77601D2*Y90199D1*X-71011*Y77601*X-47389*Y65201D2*Y77799D1*X-71011*Y65201*X-47389*X-71011Y65099D2*Y52501D1*X-47389*Y65099*X-71011*X-72512Y162756D2*Y163543D1*Y157244D2*Y156457D1*D10*G75*G1X7630Y38270D2*G3X6850Y38270I-390J0D1*X7630I390J0*G1X-7830Y30430D2*G3X-7050Y30430I390J0D1*X-7830I-390J0*D11*G1X-4600Y30380D2*G3X-4600Y29980I0J-200D1*Y30380I0J200*D15*G1X43107Y107639D2*G2X43107Y107639I-881J0D1*G1X17685Y56702D2*G2X17685Y56702I-394J0D1*G1X18200Y56700D2*G2X18200Y56700I-882J0D1*G1X-3700Y30100D2*G2X-3700Y30100I-882J0D1*G1X-26500Y89200D2*G2X-26500Y89200I-882J0D1*G1X-67693Y110939D2*G2X-67693Y110939I-881J0D1*G1X-55444Y107061D2*G2X-55444Y107061I-882J0D1*G1X0Y0D2*M02*